<?xml version="1.0" encoding="UTF-8"?> <svg xmlns="http://www.w3.org/2000/svg" width="110" height="32" viewBox="0 0 110 32" fill="none"><g clip-path="url(#clip0_7518_8599)"><path d="M7.3202 28.1045C2.8214 28.1045 0 24.9241 0 20.1337C0 15.3433 2.93356 12.1182 7.29777 12.1182C9.0898 12.1182 10.4781 12.5444 11.6196 13.2373L11.1934 16.0362C10.1865 15.276 8.93278 14.6704 7.43235 14.6704C4.70068 14.6704 3.0208 16.7515 3.0208 20.1113C3.0208 23.5134 4.81284 25.5298 7.54451 25.5298C8.97765 25.5298 10.2762 25.0139 11.4626 24.2313L11.8663 26.7835C10.6351 27.5661 9.06737 28.1045 7.3202 28.1045Z" fill="#111111"></path><path d="M20.1494 27.8357L19.9251 26.425C19.0528 27.3422 17.9337 28.0601 16.3211 28.0601C14.4842 28.0601 13.2529 26.941 13.2529 25.0592C13.2529 22.4397 15.4014 21.2982 19.7681 20.872V20.5579C19.7681 19.394 19.0951 18.9453 17.9087 18.9453C16.6551 18.9453 15.4687 19.3042 14.3047 19.8177L13.9683 17.6692C15.2219 17.1757 16.5429 16.7969 18.2677 16.7969C21.0666 16.7969 22.4549 17.8262 22.4549 20.4233V27.8332H20.1494V27.8357ZM19.7706 22.4397C16.6576 22.821 15.9198 23.7382 15.9198 24.7676C15.9198 25.5502 16.4133 26.0213 17.2408 26.0213C18.158 26.0213 19.0328 25.5951 19.7706 24.8573V22.4397Z" fill="#111111"></path><path d="M29.5067 27.9479C28.4773 27.9479 27.6473 27.7684 26.9993 27.5217V31.5968L24.3125 32.0006V17.0212H26.5955L26.8423 18.4992C27.6025 17.6268 28.6568 16.7969 30.1547 16.7969C32.4153 16.7969 34.2298 18.4992 34.2298 22.1256C34.2298 26.1559 31.9916 27.9479 29.5067 27.9479ZM29.4394 19.1721C28.4773 19.1721 27.7146 19.7778 26.9993 20.695V25.3284C27.6498 25.6424 28.1633 25.7994 29.0805 25.7994C30.4687 25.7994 31.5205 24.6579 31.5205 22.2852C31.5205 20.2015 30.6482 19.1721 29.4394 19.1721Z" fill="#111111"></path><path d="M39.7383 28.0157C37.6122 28.0157 36.1791 27.2331 36.1791 24.7681V19.2175H34.6562V17.0242H36.1791V13.5971L38.8211 13.1934V17.0217H41.0368L41.3733 19.215H38.8211V24.3195C38.8211 25.1918 39.2248 25.6629 40.2542 25.6629C40.5682 25.6629 40.8598 25.6404 41.1041 25.5731L41.4406 27.8338C41.0144 27.926 40.5209 28.0157 39.7383 28.0157Z" fill="#111111"></path><path d="M48.874 27.8348L48.6497 26.4241C47.7774 27.3413 46.6583 28.0591 45.0457 28.0591C43.2088 28.0591 41.9775 26.94 41.9775 25.0582C41.9775 22.4387 44.126 21.2972 48.4927 20.871V20.5569C48.4927 19.393 47.8222 18.9444 46.6334 18.9444C45.3797 18.9444 44.1933 19.3033 43.0293 19.8167L42.6929 17.6682C43.9465 17.1747 45.2675 16.7959 46.9923 16.7959C49.7912 16.7959 51.1795 17.8253 51.1795 20.4223V27.8323H48.874V27.8348ZM48.4927 22.4387C45.3797 22.82 44.6419 23.7373 44.6419 24.7666C44.6419 25.5492 45.1354 26.0203 45.9629 26.0203C46.8801 26.0203 47.7549 25.5941 48.4927 24.8563V22.4387Z" fill="#111111"></path><path d="M54.4241 15.2087C53.5293 15.2087 52.8115 14.5807 52.8115 13.6859C52.8115 12.7687 53.5268 12.1182 54.4241 12.1182C55.2965 12.1182 56.0143 12.7687 56.0143 13.6859C56.0143 14.5807 55.2965 15.2087 54.4241 15.2087Z" fill="#111111"></path><path d="M55.7444 17.0205H53.0576V27.8351H55.7444V17.0205Z" fill="#111111"></path><path d="M64.2065 27.8348V20.7588C64.2065 19.8192 63.8028 19.1687 62.8183 19.1687C61.9683 19.1687 61.1384 19.707 60.3558 20.5345V27.8323H57.6689V17.0202H59.952L60.1987 18.5431C61.2057 17.581 62.3472 16.7959 63.8028 16.7959C65.8166 16.7959 66.8933 18.0271 66.8933 20.041V27.8323H64.2065V27.8348Z" fill="#111111"></path><path d="M77.5507 28.1048C73.8121 28.1048 71.3721 25.8891 71.3721 21.8588V12.3877H74.3281V21.7018C74.3281 24.0522 75.4023 25.5302 77.5732 25.5302C79.7665 25.5302 80.8657 24.1419 80.8657 21.7691V12.3877H83.8441V21.7915C83.8416 25.8891 81.2894 28.1048 77.5507 28.1048Z" fill="#111111"></path><path d="M91.0946 27.9469C90.0652 27.9469 89.2352 27.7675 88.5872 27.5207V31.5958L85.9004 31.9996V17.0202H88.1834L88.4302 18.4982C89.1904 17.6259 90.2447 16.7959 91.7426 16.7959C94.0032 16.7959 95.8177 18.4982 95.8177 22.1247C95.8202 26.1549 93.5795 27.9469 91.0946 27.9469ZM91.0273 19.1712C90.0652 19.1712 89.3025 19.7768 88.5872 20.694V25.3274C89.2352 25.6414 89.7512 25.7985 90.6684 25.7985C92.0566 25.7985 93.1084 24.6569 93.1084 22.2842C93.1109 20.2005 92.2361 19.1712 91.0273 19.1712Z" fill="#111111"></path><path d="M101.947 14.5806C105.973 14.5806 109.237 11.3166 109.237 7.29029C109.237 3.26397 105.973 0 101.947 0C97.9202 0 94.6562 3.26397 94.6562 7.29029C94.6562 11.3166 97.9202 14.5806 101.947 14.5806Z" fill="#FFC908"></path></g><defs><clipPath id="clip0_7518_8599"><rect width="109.237" height="32" fill="white"></rect></clipPath></defs></svg> 