<?xml version="1.0" encoding="UTF-8"?> <svg xmlns="http://www.w3.org/2000/svg" width="110" height="32" viewBox="0 0 110 32" fill="none"><g clip-path="url(#clip0_6537_36670)"><path d="M7.3202 28.1045C2.8214 28.1045 0 24.9241 0 20.1337C0 15.3433 2.93356 12.1182 7.29777 12.1182C9.0898 12.1182 10.4781 12.5444 11.6196 13.2373L11.1934 16.0362C10.1865 15.276 8.93278 14.6704 7.43235 14.6704C4.70068 14.6704 3.0208 16.7515 3.0208 20.1113C3.0208 23.5134 4.81284 25.5298 7.54451 25.5298C8.97765 25.5298 10.2762 25.0139 11.4626 24.2313L11.8663 26.7835C10.6351 27.5661 9.06737 28.1045 7.3202 28.1045Z" fill="white"></path><path d="M20.1494 27.8353L19.9251 26.4246C19.0528 27.3418 17.9337 28.0596 16.3211 28.0596C14.4842 28.0596 13.2529 26.9405 13.2529 25.0587C13.2529 22.4392 15.4014 21.2977 19.7681 20.8715V20.5574C19.7681 19.3935 19.0951 18.9448 17.9087 18.9448C16.6551 18.9448 15.4687 19.3037 14.3047 19.8172L13.9683 17.6687C15.2219 17.1752 16.5429 16.7964 18.2677 16.7964C21.0666 16.7964 22.4549 17.8258 22.4549 20.4228V27.8328H20.1494V27.8353ZM19.7706 22.4392C16.6576 22.8205 15.9198 23.7377 15.9198 24.7671C15.9198 25.5497 16.4133 26.0208 17.2408 26.0208C18.158 26.0208 19.0328 25.5946 19.7706 24.8568V22.4392Z" fill="white"></path><path d="M29.5067 27.9474C28.4773 27.9474 27.6473 27.768 26.9993 27.5212V31.5963L24.3125 32.0001V17.0207H26.5955L26.8423 18.4987C27.6025 17.6264 28.6568 16.7964 30.1547 16.7964C32.4153 16.7964 34.2298 18.4987 34.2298 22.1251C34.2298 26.1554 31.9916 27.9474 29.5067 27.9474ZM29.4394 19.1716C28.4773 19.1716 27.7146 19.7773 26.9993 20.6945V25.3279C27.6498 25.6419 28.1633 25.799 29.0805 25.799C30.4687 25.799 31.5205 24.6574 31.5205 22.2847C31.5205 20.201 30.6482 19.1716 29.4394 19.1716Z" fill="white"></path><path d="M39.7383 28.0152C37.6122 28.0152 36.1791 27.2326 36.1791 24.7676V19.217H34.6562V17.0237H36.1791V13.5966L38.8211 13.1929V17.0212H41.0368L41.3733 19.2145H38.8211V24.319C38.8211 25.1913 39.2248 25.6624 40.2542 25.6624C40.5682 25.6624 40.8598 25.6399 41.1041 25.5727L41.4406 27.8333C41.0144 27.9255 40.5209 28.0152 39.7383 28.0152Z" fill="white"></path><path d="M48.874 27.8353L48.6497 26.4246C47.7774 27.3418 46.6583 28.0596 45.0457 28.0596C43.2088 28.0596 41.9775 26.9405 41.9775 25.0587C41.9775 22.4392 44.126 21.2977 48.4927 20.8715V20.5574C48.4927 19.3935 47.8222 18.9448 46.6334 18.9448C45.3797 18.9448 44.1933 19.3037 43.0293 19.8172L42.6929 17.6687C43.9465 17.1752 45.2675 16.7964 46.9923 16.7964C49.7912 16.7964 51.1795 17.8258 51.1795 20.4228V27.8328H48.874V27.8353ZM48.4927 22.4392C45.3797 22.8205 44.6419 23.7377 44.6419 24.7671C44.6419 25.5497 45.1354 26.0208 45.9629 26.0208C46.8801 26.0208 47.7549 25.5946 48.4927 24.8568V22.4392Z" fill="white"></path><path d="M54.4241 15.2087C53.5293 15.2087 52.8115 14.5807 52.8115 13.6859C52.8115 12.7687 53.5268 12.1182 54.4241 12.1182C55.2965 12.1182 56.0143 12.7687 56.0143 13.6859C56.0143 14.5807 55.2965 15.2087 54.4241 15.2087Z" fill="white"></path><path d="M55.7444 17.021H53.0576V27.8355H55.7444V17.021Z" fill="white"></path><path d="M64.2065 27.8353V20.7593C64.2065 19.8197 63.8028 19.1692 62.8183 19.1692C61.9683 19.1692 61.1384 19.7075 60.3558 20.535V27.8328H57.6689V17.0207H59.952L60.1987 18.5436C61.2057 17.5815 62.3472 16.7964 63.8028 16.7964C65.8166 16.7964 66.8933 18.0276 66.8933 20.0415V27.8328H64.2065V27.8353Z" fill="white"></path><path d="M77.5507 28.1048C73.8121 28.1048 71.3721 25.8891 71.3721 21.8588V12.3877H74.3281V21.7018C74.3281 24.0522 75.4023 25.5302 77.5732 25.5302C79.7665 25.5302 80.8657 24.1419 80.8657 21.7691V12.3877H83.8441V21.7915C83.8416 25.8891 81.2894 28.1048 77.5507 28.1048Z" fill="white"></path><path d="M91.0946 27.9474C90.0652 27.9474 89.2352 27.768 88.5872 27.5212V31.5963L85.9004 32.0001V17.0207H88.1834L88.4302 18.4987C89.1904 17.6264 90.2447 16.7964 91.7426 16.7964C94.0032 16.7964 95.8177 18.4987 95.8177 22.1251C95.8202 26.1554 93.5795 27.9474 91.0946 27.9474ZM91.0273 19.1716C90.0652 19.1716 89.3025 19.7773 88.5872 20.6945V25.3279C89.2352 25.6419 89.7512 25.799 90.6684 25.799C92.0566 25.799 93.1084 24.6574 93.1084 22.2847C93.1109 20.201 92.2361 19.1716 91.0273 19.1716Z" fill="white"></path><path d="M101.947 14.5806C105.973 14.5806 109.237 11.3166 109.237 7.29029C109.237 3.26397 105.973 0 101.947 0C97.9202 0 94.6562 3.26397 94.6562 7.29029C94.6562 11.3166 97.9202 14.5806 101.947 14.5806Z" fill="#FFC908"></path></g><defs><clipPath id="clip0_6537_36670"><rect width="109.237" height="32" fill="white"></rect></clipPath></defs></svg> 